<svg width="23" height="25" viewBox="0 0 23 25" fill="none" xmlns="http://www.w3.org/2000/svg">
<mask id="mask0_26_18191" style="mask-type:luminance" maskUnits="userSpaceOnUse" x="0" y="0" width="23" height="14">
<path d="M0 0H22.4406V13.7824H0V0Z" fill="white"/>
</mask>
<g mask="url(#mask0_26_18191)">
<path fill-rule="evenodd" clip-rule="evenodd" d="M11.1135 0C5.13085 0 0.00335693 5.14431 0.00335693 11.1455C0.00335693 12.2167 0.216933 13.0744 0.216933 13.7176C1.49923 12.6455 2.99426 12.0023 4.7037 11.7879C2.99426 11.5743 1.49923 10.0734 1.49923 8.14446C1.49923 6.21556 3.20783 4.50106 5.13085 4.50106C7.26745 4.50106 8.76332 6.21556 8.76332 8.14446C8.76332 8.78771 8.76332 9.43096 8.33617 10.0734C8.9769 9.21655 10.0448 8.5733 11.1135 8.5733C12.3949 8.5733 13.4637 9.21655 14.1044 10.0734C13.6772 9.43096 13.4637 8.78771 13.4637 8.14446C13.4637 6.21556 15.1731 4.50106 17.3097 4.50106C19.2319 4.50106 20.9413 6.21556 20.9413 8.14446C20.9413 10.0734 19.4455 11.5743 17.7369 11.7879C19.4455 12.0023 20.9413 12.6455 22.0101 13.7176C22.2236 13.0744 22.4372 12.2167 22.4372 11.1455C22.4372 5.14431 17.3097 0 11.1135 0Z" fill="#33543D"/>
</g>
<mask id="mask1_26_18191" style="mask-type:luminance" maskUnits="userSpaceOnUse" x="5" y="9" width="14" height="16">
<path d="M5.5412 9.26193H18.2414V24.8622H5.5412V9.26193Z" fill="white"/>
</mask>
<g mask="url(#mask1_26_18191)">
<path fill-rule="evenodd" clip-rule="evenodd" d="M11.1135 9.43088C9.6176 9.43088 8.33615 10.7165 8.33615 12.431C8.33615 13.9311 9.6176 15.2176 11.1135 15.2176C12.8229 15.2176 14.1044 13.9311 14.1044 12.431C14.1044 10.7165 12.8229 9.43088 11.1135 9.43088ZM18.164 24.6477C17.5233 24.4333 15.1731 22.9332 16.8817 20.7899C16.0274 18.4322 13.8908 16.7177 11.1135 16.7177C8.54972 16.7177 6.41313 18.4322 5.55798 20.7899C7.69458 23.5765 13.6772 25.7198 18.164 24.6477Z" fill="#97B690"/>
</g>
<path fill-rule="evenodd" clip-rule="evenodd" d="M5.13087 5.14429C3.63584 5.14429 2.35355 6.64436 2.35355 8.14444C2.35355 9.85893 3.63584 11.1454 5.13087 11.1454C6.84032 11.1454 8.12261 9.85893 8.12261 8.14444C8.12261 6.64436 6.84032 5.14429 5.13087 5.14429ZM0.644104 14.5744C1.28567 17.1466 2.7807 19.0755 4.9173 20.3611C5.77244 18.2178 7.69462 16.5033 10.2584 16.0745C10.2584 15.8609 10.2584 15.8609 10.2584 15.8609C8.97692 15.4321 7.9082 14.36 7.69462 13.0743C6.84032 12.6455 5.98602 12.4311 5.13087 12.4311C3.20785 12.4311 1.71282 13.2887 0.644104 14.5744Z" fill="#7D9B76"/>
<path fill-rule="evenodd" clip-rule="evenodd" d="M17.3097 5.14429C15.6003 5.14429 14.318 6.64436 14.318 8.14444C14.318 9.85893 15.6003 11.1454 17.3097 11.1454C18.8047 11.1454 20.087 9.85893 20.087 8.14444C20.087 6.64436 18.8047 5.14429 17.3097 5.14429ZM17.5233 20.3611C19.6599 19.0755 21.1549 17.1466 21.7956 14.5744C20.7278 13.2887 19.0183 12.4311 17.3097 12.4311C16.241 12.4311 15.6003 12.6455 14.7451 13.0743C14.5316 14.36 13.4637 15.4321 12.1814 15.8609C12.1814 15.8609 11.9678 15.8609 11.9678 16.0745H12.1814C14.5316 16.5033 16.6681 18.2178 17.5233 20.3611Z" fill="#35483B"/>
</svg>
