<svg width="45" height="45" viewBox="0 0 45 45" fill="none" xmlns="http://www.w3.org/2000/svg">
<path d="M4.82171 30.5357C6.59691 30.5357 8.03599 28.3771 8.03599 25.7143C8.03599 23.0515 6.59691 20.8929 4.82171 20.8929C3.04651 20.8929 1.60742 23.0515 1.60742 25.7143C1.60742 28.3771 3.04651 30.5357 4.82171 30.5357Z" stroke="#97B690" stroke-width="2.92857" stroke-linecap="round" stroke-linejoin="round"/>
<path d="M14.4643 16.0714C16.2395 16.0714 17.6786 13.9128 17.6786 11.25C17.6786 8.5872 16.2395 6.42857 14.4643 6.42857C12.6891 6.42857 11.25 8.5872 11.25 11.25C11.25 13.9128 12.6891 16.0714 14.4643 16.0714Z" stroke="#97B690" stroke-width="2.92857" stroke-linecap="round" stroke-linejoin="round"/>
<path d="M30.5356 16.0714C32.3108 16.0714 33.7499 13.9128 33.7499 11.25C33.7499 8.5872 32.3108 6.42857 30.5356 6.42857C28.7604 6.42857 27.3213 8.5872 27.3213 11.25C27.3213 13.9128 28.7604 16.0714 30.5356 16.0714Z" stroke="#97B690" stroke-width="2.92857" stroke-linecap="round" stroke-linejoin="round"/>
<path d="M40.1791 30.5357C41.9543 30.5357 43.3934 28.3771 43.3934 25.7143C43.3934 23.0515 41.9543 20.8929 40.1791 20.8929C38.4039 20.8929 36.9648 23.0515 36.9648 25.7143C36.9648 28.3771 38.4039 30.5357 40.1791 30.5357Z" stroke="#97B690" stroke-width="2.92857" stroke-linecap="round" stroke-linejoin="round"/>
<path d="M32.1431 32.1429C32.1431 36.5786 26.936 38.5714 22.5003 38.5714C18.0646 38.5714 12.8574 36.5786 12.8574 32.1429C12.8574 27.7071 16.0717 20.8929 22.5003 20.8929C28.9288 20.8929 32.1431 27.7071 32.1431 32.1429Z" stroke="#97B690" stroke-width="2.92857" stroke-linecap="round" stroke-linejoin="round"/>
</svg>
