<svg width="45" height="45" viewBox="0 0 45 45" fill="none" xmlns="http://www.w3.org/2000/svg">
<path d="M36.5625 42.1875H33.75V37.9688C33.7478 36.1046 33.0063 34.3175 31.6881 32.9994C30.37 31.6812 28.5829 30.9397 26.7188 30.9375H18.2812C16.4171 30.9397 14.63 31.6812 13.3119 32.9994C11.9937 34.3175 11.2522 36.1046 11.25 37.9688V42.1875H8.4375V37.9688C8.44048 35.3589 9.47854 32.8569 11.324 31.0115C13.1694 29.166 15.6714 28.128 18.2812 28.125H26.7188C29.3286 28.128 31.8306 29.166 33.676 31.0115C35.5215 32.8569 36.5595 35.3589 36.5625 37.9688V42.1875ZM7.03125 8.4375C6.65829 8.4375 6.3006 8.58566 6.03688 8.84938C5.77316 9.1131 5.625 9.47079 5.625 9.84375V22.5H8.4375V9.84375C8.4375 9.47079 8.28934 9.1131 8.02562 8.84938C7.7619 8.58566 7.40421 8.4375 7.03125 8.4375Z" fill="#97B690"/>
<path d="M5.625 2.8125V5.625H12.6562V15.4688C12.6562 18.0795 13.6934 20.5833 15.5394 22.4293C17.3855 24.2754 19.8893 25.3125 22.5 25.3125C25.1107 25.3125 27.6145 24.2754 29.4606 22.4293C31.3066 20.5833 32.3438 18.0795 32.3438 15.4688V5.625H39.375V2.8125H5.625ZM15.4688 5.625H29.5312V9.84375H15.4688V5.625ZM22.5 22.5C20.6352 22.5 18.8468 21.7592 17.5282 20.4406C16.2095 19.122 15.4688 17.3336 15.4688 15.4688V12.6562H29.5312V15.4688C29.5312 17.3336 28.7905 19.122 27.4718 20.4406C26.1532 21.7592 24.3648 22.5 22.5 22.5Z" fill="#97B690"/>
</svg>
