<svg width="45" height="45" viewBox="0 0 45 45" fill="none" xmlns="http://www.w3.org/2000/svg">
<g clip-path="url(#clip0_37_32068)">
<path d="M8.35312 3.79688C8.61718 3.48816 8.94498 3.24031 9.31397 3.07038C9.68296 2.90045 10.0844 2.81247 10.4906 2.8125H34.5094C34.9156 2.81247 35.317 2.90045 35.686 3.07038C36.055 3.24031 36.3828 3.48816 36.6469 3.79688L43.9847 12.3581C44.6398 13.1227 45 14.0963 45 15.1031V15.8203C45.0002 17.2124 44.5653 18.5698 43.7564 19.7027C42.9474 20.8357 41.8046 21.6875 40.4878 22.1393C39.171 22.591 37.746 22.6201 36.4119 22.2223C35.0778 21.8246 33.9013 21.02 33.0469 19.9209C32.4229 20.7247 31.6233 21.3749 30.7092 21.822C29.7952 22.269 28.7909 22.5009 27.7734 22.5C26.7559 22.5011 25.7516 22.2693 24.8375 21.8223C23.9234 21.3752 23.1238 20.7248 22.5 19.9209C21.8762 20.7248 21.0766 21.3752 20.1625 21.8223C19.2484 22.2693 18.2441 22.5011 17.2266 22.5C16.209 22.5011 15.2047 22.2693 14.2906 21.8223C13.3766 21.3752 12.577 20.7248 11.9531 19.9209C11.0987 21.02 9.92217 21.8246 8.58807 22.2223C7.25398 22.6201 5.82895 22.591 4.51216 22.1393C3.19537 21.6875 2.05263 20.8357 1.24364 19.7027C0.434649 18.5698 -0.000153558 17.2124 4.06815e-08 15.8203V15.1031C3.54587e-05 14.0963 0.360159 13.1227 1.01531 12.3581L8.35594 3.79406L8.35312 3.79688ZM13.3594 15.8203C13.3594 16.846 13.7668 17.8296 14.492 18.5548C15.2173 19.2801 16.2009 19.6875 17.2266 19.6875C18.2522 19.6875 19.2358 19.2801 19.9611 18.5548C20.6863 17.8296 21.0938 16.846 21.0938 15.8203C21.0938 15.4474 21.2419 15.0897 21.5056 14.8259C21.7694 14.5622 22.127 14.4141 22.5 14.4141C22.873 14.4141 23.2306 14.5622 23.4944 14.8259C23.7581 15.0897 23.9062 15.4474 23.9062 15.8203C23.9062 16.846 24.3137 17.8296 25.0389 18.5548C25.7642 19.2801 26.7478 19.6875 27.7734 19.6875C28.7991 19.6875 29.7827 19.2801 30.508 18.5548C31.2332 17.8296 31.6406 16.846 31.6406 15.8203C31.6406 15.4474 31.7888 15.0897 32.0525 14.8259C32.3162 14.5622 32.6739 14.4141 33.0469 14.4141C33.4198 14.4141 33.7775 14.5622 34.0412 14.8259C34.305 15.0897 34.4531 15.4474 34.4531 15.8203C34.4531 16.846 34.8606 17.8296 35.5858 18.5548C36.311 19.2801 37.2947 19.6875 38.3203 19.6875C39.346 19.6875 40.3296 19.2801 41.0548 18.5548C41.7801 17.8296 42.1875 16.846 42.1875 15.8203V15.1031C42.1875 14.768 42.0678 14.4438 41.85 14.1891L34.5094 5.625H10.4906L3.15 14.1891C2.93216 14.4438 2.81247 14.768 2.8125 15.1031V15.8203C2.8125 16.846 3.21993 17.8296 3.94517 18.5548C4.67041 19.2801 5.65405 19.6875 6.67969 19.6875C7.70533 19.6875 8.68896 19.2801 9.4142 18.5548C10.1394 17.8296 10.5469 16.846 10.5469 15.8203C10.5469 15.4474 10.695 15.0897 10.9588 14.8259C11.2225 14.5622 11.5802 14.4141 11.9531 14.4141C12.3261 14.4141 12.6838 14.5622 12.9475 14.8259C13.2112 15.0897 13.3594 15.4474 13.3594 15.8203ZM4.21875 23.9062C4.59171 23.9062 4.9494 24.0544 5.21312 24.3181C5.47684 24.5819 5.625 24.9395 5.625 25.3125V42.1875H8.4375V28.125C8.4375 27.3791 8.73382 26.6637 9.26126 26.1363C9.78871 25.6088 10.5041 25.3125 11.25 25.3125H19.6875C20.4334 25.3125 21.1488 25.6088 21.6762 26.1363C22.2037 26.6637 22.5 27.3791 22.5 28.125V42.1875H39.375V25.3125C39.375 24.9395 39.5232 24.5819 39.7869 24.3181C40.0506 24.0544 40.4083 23.9062 40.7812 23.9062C41.1542 23.9062 41.5119 24.0544 41.7756 24.3181C42.0393 24.5819 42.1875 24.9395 42.1875 25.3125V42.1875H43.5938C43.9667 42.1875 44.3244 42.3357 44.5881 42.5994C44.8518 42.8631 45 43.2208 45 43.5938C45 43.9667 44.8518 44.3244 44.5881 44.5881C44.3244 44.8518 43.9667 45 43.5938 45H1.40625C1.03329 45 0.675604 44.8518 0.411881 44.5881C0.148158 44.3244 4.06815e-08 43.9667 4.06815e-08 43.5938C4.06815e-08 43.2208 0.148158 42.8631 0.411881 42.5994C0.675604 42.3357 1.03329 42.1875 1.40625 42.1875H2.8125V25.3125C2.8125 24.9395 2.96066 24.5819 3.22438 24.3181C3.4881 24.0544 3.84579 23.9062 4.21875 23.9062ZM11.25 42.1875H19.6875V28.125H11.25V42.1875ZM25.3125 28.125C25.3125 27.3791 25.6088 26.6637 26.1363 26.1363C26.6637 25.6088 27.3791 25.3125 28.125 25.3125H33.75C34.4959 25.3125 35.2113 25.6088 35.7387 26.1363C36.2662 26.6637 36.5625 27.3791 36.5625 28.125V36.5625C36.5625 37.3084 36.2662 38.0238 35.7387 38.5512C35.2113 39.0787 34.4959 39.375 33.75 39.375H28.125C27.3791 39.375 26.6637 39.0787 26.1363 38.5512C25.6088 38.0238 25.3125 37.3084 25.3125 36.5625V28.125ZM33.75 28.125H28.125V36.5625H33.75V28.125Z" fill="#97B690"/>
</g>
<defs>
<clipPath id="clip0_37_32068">
<rect width="45" height="45" fill="white"/>
</clipPath>
</defs>
</svg>
