<svg width="32" height="31" viewBox="0 0 32 31" fill="none" xmlns="http://www.w3.org/2000/svg">
<g clip-path="url(#clip0_26_18655)">
<path d="M5.82035 0C2.69658 0 0.181335 2.51525 0.181335 5.63901V25.2438C0.181335 28.3676 2.69658 30.8828 5.82035 30.8828H16.446V18.8096H13.2535V14.4628H16.446V10.7492C16.446 7.8315 18.3323 5.15261 22.6775 5.15261C24.4369 5.15261 25.7378 5.3215 25.7378 5.3215L25.6355 9.38068C25.6355 9.38068 24.3087 9.36814 22.8609 9.36814C21.2939 9.36814 21.0427 10.0901 21.0427 11.2887V14.4628H25.76L25.5544 18.8096H21.0427V30.8828H25.4251C28.5489 30.8828 31.0641 28.3676 31.0641 25.2438V5.63904C31.0641 2.51528 28.5489 3.08828e-05 25.4251 3.08828e-05H5.82031L5.82035 0Z" fill="#E9EAED"/>
</g>
<defs>
<clipPath id="clip0_26_18655">
<rect width="30.8828" height="30.8828" fill="white" transform="translate(0.181335)"/>
</clipPath>
</defs>
</svg>
