<svg width="32" height="31" viewBox="0 0 32 31" fill="none" xmlns="http://www.w3.org/2000/svg">
<g clip-path="url(#clip0_26_18651)">
<path d="M31.146 9.1152C31.1287 7.8185 30.8856 6.53469 30.4275 5.32119C30.0302 4.29762 29.4234 3.36803 28.6459 2.59182C27.8684 1.81561 26.9373 1.20985 25.912 0.813246C24.7121 0.363576 23.4445 0.120431 22.1631 0.0941654C20.5134 0.0205453 19.9903 0 15.8024 0C11.6145 0 11.0777 1.14805e-07 9.43995 0.0941654C8.15916 0.120624 6.89213 0.363766 5.69279 0.813246C4.66735 1.20958 3.73607 1.81524 2.95853 2.59148C2.181 3.36773 1.57432 4.29746 1.17733 5.32119C0.726011 6.51817 0.482989 7.78338 0.458769 9.06212C0.385026 10.7109 0.362732 11.2331 0.362732 15.414C0.362732 19.5949 0.362732 20.1291 0.458769 21.7659C0.484493 23.0465 0.726301 24.31 1.17733 25.5102C1.57499 26.5336 2.18211 27.463 2.95991 28.2389C3.73771 29.0148 4.66908 29.6202 5.6945 30.0165C6.89057 30.4842 8.15781 30.7448 9.44167 30.7869C11.0932 30.8605 11.6162 30.8828 15.8041 30.8828C19.992 30.8828 20.5288 30.8828 22.1666 30.7869C23.4479 30.7617 24.7156 30.5191 25.9155 30.0695C26.9405 29.6725 27.8714 29.0665 28.6488 28.2904C29.4263 27.5142 30.0332 26.5849 30.4309 25.5616C30.8819 24.3631 31.1237 23.0996 31.1495 21.8172C31.2232 20.1702 31.2455 19.648 31.2455 15.4654C31.2421 11.2844 31.2421 10.7537 31.146 9.1152ZM15.7921 23.3205C11.4121 23.3205 7.86391 19.7781 7.86391 15.4054C7.86391 11.0327 11.4121 7.49042 15.7921 7.49042C17.8948 7.49042 19.9114 8.32432 21.3982 9.80867C22.885 11.293 23.7203 13.3062 23.7203 15.4054C23.7203 17.5046 22.885 19.5178 21.3982 21.0022C19.9114 22.4866 17.8948 23.3205 15.7921 23.3205ZM24.0359 9.04329C23.793 9.04351 23.5525 8.99593 23.3281 8.90326C23.1037 8.81059 22.8998 8.67464 22.7281 8.50322C22.5564 8.33179 22.4202 8.12824 22.3274 7.90421C22.2346 7.68019 22.1869 7.44009 22.1872 7.19765C22.1872 6.95539 22.235 6.7155 22.3278 6.49168C22.4207 6.26786 22.5568 6.0645 22.7284 5.89319C22.9 5.72189 23.1037 5.586 23.3279 5.49329C23.5521 5.40058 23.7924 5.35287 24.035 5.35287C24.2777 5.35287 24.518 5.40058 24.7422 5.49329C24.9663 5.586 25.1701 5.72189 25.3416 5.89319C25.5132 6.0645 25.6493 6.26786 25.7422 6.49168C25.8351 6.7155 25.8829 6.95539 25.8829 7.19765C25.8829 8.21806 25.0563 9.04329 24.0359 9.04329Z" fill="#E9EAED"/>
<path d="M16.075 19.8358C18.363 19.8358 20.2178 17.981 20.2178 15.693C20.2178 13.405 18.363 11.5502 16.075 11.5502C13.787 11.5502 11.9322 13.405 11.9322 15.693C11.9322 17.981 13.787 19.8358 16.075 19.8358Z" fill="#E9EAED"/>
</g>
<defs>
<clipPath id="clip0_26_18651">
<rect width="30.8828" height="30.8828" fill="white" transform="translate(0.362732)"/>
</clipPath>
</defs>
</svg>
