<svg width="31" height="31" viewBox="0 0 31 31" fill="none" xmlns="http://www.w3.org/2000/svg">
<g clip-path="url(#clip0_26_18657)">
<path fill-rule="evenodd" clip-rule="evenodd" d="M1.28677 3.86686C1.28677 3.18257 1.55861 2.52631 2.04247 2.04244C2.52634 1.55858 3.1826 1.28675 3.86689 1.28675H29.5866C29.9257 1.28619 30.2616 1.35253 30.5751 1.48196C30.8885 1.6114 31.1734 1.80138 31.4133 2.04104C31.6532 2.2807 31.8435 2.56533 31.9733 2.87863C32.103 3.19193 32.1697 3.52775 32.1695 3.86686V29.5866C32.1699 29.9258 32.1034 30.2617 31.9738 30.5752C31.8442 30.8886 31.6541 31.1734 31.4144 31.4133C31.1746 31.6532 30.8899 31.8435 30.5765 31.9733C30.2631 32.103 29.9272 32.1697 29.588 32.1695H3.86689C3.52795 32.1695 3.19232 32.1027 2.8792 31.973C2.56607 31.8432 2.28158 31.6531 2.04198 31.4133C1.80237 31.1736 1.61235 30.889 1.48277 30.5758C1.35319 30.2626 1.28659 29.9269 1.28677 29.588V3.86686ZM13.5107 13.0615H17.6925V15.1615C18.2962 13.9543 19.8403 12.8678 22.1607 12.8678C26.6092 12.8678 27.6635 15.2724 27.6635 19.6845V27.8572H23.1616V20.6896C23.1616 18.1768 22.558 16.759 21.0251 16.759C18.8984 16.759 18.014 18.2877 18.014 20.6896V27.8572H13.5107V13.0615ZM5.79004 27.6648H10.2933V12.8678H5.79004V27.6634V27.6648ZM10.9376 8.04165C10.9461 8.42723 10.8775 8.81062 10.7358 9.16931C10.5942 9.52802 10.3822 9.8548 10.1126 10.1305C9.84286 10.4062 9.52082 10.6252 9.16533 10.7748C8.80983 10.9243 8.42805 11.0014 8.04238 11.0014C7.65671 11.0014 7.27493 10.9243 6.91944 10.7748C6.56394 10.6252 6.2419 10.4062 5.97221 10.1305C5.70252 9.8548 5.49061 9.52802 5.34893 9.16931C5.20724 8.81062 5.13863 8.42723 5.14712 8.04165C5.16379 7.28482 5.47614 6.5646 6.01729 6.03523C6.55844 5.50587 7.28537 5.20945 8.04238 5.20945C8.7994 5.20945 9.52632 5.50587 10.0675 6.03523C10.6086 6.5646 10.921 7.28482 10.9376 8.04165Z" fill="#E9EAED"/>
</g>
<defs>
<clipPath id="clip0_26_18657">
<rect width="30.8828" height="30.8828" fill="white"/>
</clipPath>
</defs>
</svg>
