<svg width="20" height="20" viewBox="0 0 20 20" fill="none" xmlns="http://www.w3.org/2000/svg">
<g id="Group">
<path id="Vector" d="M1 9.9991H13.6M13.6 9.9991L10.45 7.2991M13.6 9.9991L10.45 12.6991" stroke="#4F4F50" stroke-width="1.5" stroke-linecap="round" stroke-linejoin="round"/>
<path id="Vector_2" d="M7.30042 5.5C7.31122 3.5425 7.39851 2.4823 8.08971 1.7911C8.88081 1 10.1534 1 12.6986 1H13.5986C16.1447 1 17.4173 1 18.2084 1.7911C18.9986 2.5813 18.9986 3.8548 18.9986 6.4V13.6C18.9986 16.1452 18.9986 17.4187 18.2084 18.2089C17.4164 19 16.1447 19 13.5986 19H12.6986C10.1534 19 8.88081 19 8.08971 18.2089C7.39851 17.5177 7.31122 16.4575 7.30042 14.5" stroke="#4F4F50" stroke-width="1.5" stroke-linecap="round"/>
</g>
</svg>
