<svg width="197" height="105" viewBox="0 0 197 105" fill="none" xmlns="http://www.w3.org/2000/svg">
<g id="Group 11">
<g id="Clip path group">
<mask id="mask0_26_18577" style="mask-type:luminance" maskUnits="userSpaceOnUse" x="60" y="0" width="70" height="43">
<g id="3fa04c893b">
<path id="Vector" d="M60.9652 0H129.362V42.0076H60.9652V0Z" fill="white"/>
</g>
</mask>
<g mask="url(#mask0_26_18577)">
<g id="Group">
<path id="Vector_2" fill-rule="evenodd" clip-rule="evenodd" d="M94.8384 0C76.6038 0 60.9756 15.6795 60.9756 33.9705C60.9756 37.2355 61.6265 39.8497 61.6265 41.8102C65.5349 38.5426 70.0916 36.582 75.3019 35.9285C70.0916 35.2775 65.5349 30.7029 65.5349 24.8237C65.5349 18.9445 70.7426 13.7189 76.6038 13.7189C83.116 13.7189 87.6753 18.9445 87.6753 24.8237C87.6753 26.7843 87.6753 28.7449 86.3734 30.7029C88.3263 28.0913 91.5811 26.1308 94.8384 26.1308C98.7442 26.1308 102.002 28.0913 103.954 30.7029C102.653 28.7449 102.002 26.7843 102.002 24.8237C102.002 18.9445 107.212 13.7189 113.724 13.7189C119.583 13.7189 124.793 18.9445 124.793 24.8237C124.793 30.7029 120.234 35.2775 115.026 35.9285C120.234 36.582 124.793 38.5426 128.05 41.8102C128.701 39.8497 129.352 37.2355 129.352 33.9705C129.352 15.6795 113.724 0 94.8384 0Z" fill="white"/>
</g>
</g>
</g>
<g id="Clip path group_2">
<mask id="mask1_26_18577" style="mask-type:luminance" maskUnits="userSpaceOnUse" x="77" y="28" width="40" height="48">
<g id="e95529b538">
<path id="Vector_3" d="M77.8543 28.2297H116.563V75.7782H77.8543V28.2297Z" fill="white"/>
</g>
</mask>
<g mask="url(#mask1_26_18577)">
<g id="Group_2">
<path id="Vector_4" fill-rule="evenodd" clip-rule="evenodd" d="M94.8383 28.7449C90.279 28.7449 86.3732 32.6635 86.3732 37.8891C86.3732 42.4612 90.279 46.3824 94.8383 46.3824C100.049 46.3824 103.954 42.4612 103.954 37.8891C103.954 32.6635 100.049 28.7449 94.8383 28.7449ZM116.328 75.1246C114.375 74.4711 107.212 69.899 112.419 63.3663C109.816 56.1801 103.303 50.9545 94.8383 50.9545C87.0242 50.9545 80.512 56.1801 77.9056 63.3663C84.4178 71.8596 102.652 78.3923 116.328 75.1246Z" fill="#E9EAED"/>
</g>
</g>
</g>
<path id="Vector_5" fill-rule="evenodd" clip-rule="evenodd" d="M76.6036 15.6794C72.0469 15.6794 68.1385 20.2516 68.1385 24.8237C68.1385 30.0493 72.0469 33.9705 76.6036 33.9705C81.8139 33.9705 85.7222 30.0493 85.7222 24.8237C85.7222 20.2516 81.8139 15.6794 76.6036 15.6794ZM62.9283 44.4217C64.8837 52.2615 69.4405 58.1406 75.9527 62.0592C78.5591 55.5265 84.4177 50.3009 92.2318 48.9938C92.2318 48.3429 92.2318 48.3429 92.2318 48.3429C88.3261 47.0358 85.0687 43.7682 84.4177 39.8496C81.8139 38.5426 79.21 37.889 76.6036 37.889C70.7424 37.889 66.1857 40.5031 62.9283 44.4217Z" fill="#F4F5F9"/>
<path id="Vector_6" fill-rule="evenodd" clip-rule="evenodd" d="M113.724 15.6794C108.514 15.6794 104.605 20.2516 104.605 24.8237C104.605 30.0493 108.514 33.9705 113.724 33.9705C118.281 33.9705 122.189 30.0493 122.189 24.8237C122.189 20.2516 118.281 15.6794 113.724 15.6794ZM114.375 62.0592C120.887 58.1406 125.444 52.2615 127.397 44.4217C124.142 40.5031 118.932 37.889 113.724 37.889C110.467 37.889 108.514 38.5426 105.907 39.8496C105.256 43.7682 102.001 47.0358 98.0931 48.3429C98.0931 48.3429 97.4421 48.3429 97.4421 48.9938H98.0931C105.256 50.3009 111.768 55.5265 114.375 62.0592Z" fill="#C9CACD"/>
<g id="Group_3">
<g id="Group_4">
<g id="Group_5">
<path id="Vector_7" d="M9.46202 98.4293H3.90577L2.83963 100.992H0L5.34097 89.0186H8.07808L13.4293 100.992H10.5179L9.46202 98.4293ZM8.59065 96.3175L6.69415 91.7352L4.78739 96.3175H8.59065ZM7.463 85.5741H10.3334L7.23747 88.0447H5.14619L7.463 85.5741Z" fill="white"/>
</g>
</g>
</g>
<g id="Group_6">
<g id="Group_7">
<g id="Group_8">
<path id="Vector_8" d="M23.1086 94.8105H25.6407V99.6697C24.9897 100.162 24.2362 100.541 23.3751 100.808C22.5191 101.066 21.6631 101.197 20.802 101.197C19.5565 101.197 18.4365 100.936 17.4396 100.408C16.4478 99.8747 15.6687 99.1366 15.1023 98.1935C14.541 97.2504 14.2617 96.1893 14.2617 95.0053C14.2617 93.8161 14.541 92.7551 15.1023 91.8171C15.6687 90.874 16.4555 90.141 17.4601 89.6131C18.4647 89.08 19.5949 88.8135 20.8533 88.8135C21.8989 88.8135 22.8472 88.9929 23.7032 89.3465C24.5643 89.6951 25.2844 90.2077 25.8662 90.8843L24.0825 92.5245C23.2265 91.6224 22.1962 91.1713 20.9866 91.1713C20.2203 91.1713 19.5411 91.3328 18.9465 91.6531C18.3571 91.9683 17.8958 92.4194 17.5626 93.0063C17.2346 93.5881 17.0705 94.2544 17.0705 95.0053C17.0705 95.7434 17.2346 96.4072 17.5626 96.9941C17.8958 97.5758 18.3571 98.0295 18.9465 98.3575C19.5334 98.6804 20.2023 98.8393 20.9558 98.8393C21.7554 98.8393 22.473 98.6702 23.1086 98.3268V94.8105Z" fill="white"/>
</g>
</g>
</g>
<g id="Group_9">
<g id="Group_10">
<g id="Group_11">
<path id="Vector_9" d="M34.3393 101.197C33.0938 101.197 31.9738 100.931 30.9769 100.398C29.9774 99.8593 29.1957 99.1212 28.6293 98.1832C28.068 97.2401 27.7887 96.1817 27.7887 95.0053C27.7887 93.8315 28.068 92.7756 28.6293 91.8376C29.1957 90.8945 29.9774 90.1564 30.9769 89.6233C31.9738 89.0851 33.0938 88.8135 34.3393 88.8135C35.5823 88.8135 36.6997 89.0851 37.6915 89.6233C38.6885 90.1564 39.4701 90.8945 40.0391 91.8376C40.6132 92.7756 40.9002 93.8315 40.9002 95.0053C40.9002 96.1817 40.6132 97.2401 40.0391 98.1832C39.4701 99.1212 38.6885 99.8593 37.6915 100.398C36.6997 100.931 35.5823 101.197 34.3393 101.197ZM34.3393 98.8393C35.0492 98.8393 35.6874 98.6804 36.2563 98.3575C36.8304 98.0295 37.2763 97.5758 37.5993 96.9941C37.9273 96.4072 38.0913 95.7434 38.0913 95.0053C38.0913 94.2621 37.9273 93.5983 37.5993 93.0165C37.2763 92.4373 36.8304 91.9863 36.2563 91.6634C35.6874 91.3353 35.0492 91.1713 34.3393 91.1713C33.6345 91.1713 32.9964 91.3353 32.4223 91.6634C31.8534 91.9863 31.4074 92.4373 31.0794 93.0165C30.7565 93.5983 30.5976 94.2621 30.5976 95.0053C30.5976 95.7434 30.7565 96.4072 31.0794 96.9941C31.4074 97.5758 31.8534 98.0295 32.4223 98.3575C32.9964 98.6804 33.6345 98.8393 34.3393 98.8393Z" fill="white"/>
</g>
</g>
</g>
<g id="Group_12">
<g id="Group_13">
<g id="Group_14">
<path id="Vector_10" d="M50.9497 100.992L48.6432 97.6605H46.0906V100.992H43.3227V89.0186H48.4997C49.5581 89.0186 50.4782 89.198 51.2573 89.5516C52.0415 89.9002 52.6463 90.3999 53.0718 91.0483C53.4946 91.6993 53.7074 92.4707 53.7074 93.3651C53.7074 94.2544 53.4921 95.0207 53.0615 95.6614C52.631 96.3047 52.021 96.7968 51.2368 97.1376L53.9226 100.992H50.9497ZM50.8985 93.3651C50.8985 92.6885 50.6781 92.1734 50.2424 91.8172C49.8118 91.4558 49.1788 91.2739 48.3459 91.2739H46.0906V95.4462H48.3459C49.1788 95.4462 49.8118 95.2668 50.2424 94.9028C50.6781 94.5338 50.8985 94.0212 50.8985 93.3651Z" fill="white"/>
</g>
</g>
</g>
<g id="Group_15">
<g id="Group_16">
<g id="Group_17">
<path id="Vector_11" d="M64.1175 98.4293H58.5612L57.4951 100.992H54.6555L59.9964 89.0186H62.7335L68.0848 100.992H65.1734L64.1175 98.4293ZM63.2461 96.3175L61.3496 91.7352L59.4428 96.3175H63.2461Z" fill="white"/>
</g>
</g>
</g>
<g id="Group_18">
<g id="Group_19">
<g id="Group_20">
<path id="Vector_12" d="M80.0516 100.203V100.992H71.789V89.0186H79.7953V89.7977H72.6604V94.5235H79.0367V95.2924H72.6604V100.203H80.0516Z" fill="white"/>
</g>
</g>
</g>
<g id="Group_21">
<g id="Group_22">
<g id="Group_23">
<path id="Vector_13" d="M94.8995 100.992L94.879 90.7408L89.8661 99.4032H89.4356L84.4226 90.7818V100.992H83.5718V89.0186H84.2996L89.6611 98.2755L95.0123 89.0186H95.7299L95.7504 100.992H94.8995Z" fill="white"/>
</g>
</g>
</g>
<g id="Group_24">
<g id="Group_25">
<g id="Group_26">
<path id="Vector_14" d="M107.377 94.8106C108.23 94.9746 108.884 95.3129 109.335 95.8255C109.786 96.338 110.012 97.0044 110.012 97.8245C110.012 98.8445 109.637 99.6262 108.894 100.172C108.156 100.72 107.054 100.992 105.593 100.992H100.263V89.0186H105.255C106.552 89.0186 107.564 89.2851 108.289 89.8182C109.012 90.3461 109.376 91.097 109.376 92.0735C109.376 92.7654 109.194 93.3421 108.833 93.8059C108.476 94.2724 107.992 94.6056 107.377 94.8106ZM101.134 89.7669V94.544H105.224C106.27 94.544 107.072 94.3441 107.633 93.9392C108.2 93.5292 108.484 92.932 108.484 92.1452C108.484 91.3738 108.2 90.7869 107.633 90.382C107.072 89.9719 106.27 89.7669 105.224 89.7669H101.134ZM105.593 100.244C106.762 100.244 107.644 100.044 108.238 99.639C108.838 99.2289 109.14 98.6036 109.14 97.763C109.14 96.9172 108.838 96.2945 108.238 95.8972C107.644 95.4949 106.762 95.2924 105.593 95.2924H101.134V100.244H105.593Z" fill="white"/>
</g>
</g>
</g>
<g id="Group_27">
<g id="Group_28">
<g id="Group_29">
<path id="Vector_15" d="M118.15 101.074C116.632 101.074 115.453 100.638 114.613 99.762C113.777 98.8804 113.362 97.5964 113.362 95.9075V89.0186H114.233V95.8767C114.233 97.3478 114.567 98.4473 115.238 99.1777C115.915 99.9106 116.891 100.275 118.17 100.275C119.433 100.275 120.4 99.9106 121.071 99.1777C121.748 98.4473 122.086 97.3478 122.086 95.8767V89.0186H122.957V95.9075C122.957 97.5964 122.532 98.8804 121.686 99.762C120.846 100.638 119.667 101.074 118.15 101.074Z" fill="white"/>
</g>
</g>
</g>
<g id="Group_30">
<g id="Group_31">
<g id="Group_32">
<path id="Vector_16" d="M126.333 96.0099H130.73V96.7787H126.333V96.0099Z" fill="white"/>
</g>
</g>
</g>
<g id="Group_33">
<g id="Group_34">
<g id="Group_35">
<path id="Vector_17" d="M142.775 95.0566H143.616V99.5364C143.088 100.044 142.45 100.426 141.699 100.685C140.953 100.946 140.166 101.074 139.341 101.074C138.152 101.074 137.078 100.815 136.122 100.295C135.171 99.7697 134.425 99.0444 133.887 98.1218C133.346 97.194 133.077 96.1535 133.077 95.0053C133.077 93.8521 133.346 92.8115 133.887 91.8889C134.425 90.9663 135.171 90.2436 136.122 89.7156C137.078 89.1902 138.154 88.9263 139.351 88.9263C140.233 88.9263 141.038 89.0672 141.771 89.3466C142.509 89.6285 143.139 90.0385 143.667 90.5767L143.124 91.1508C142.616 90.6536 142.052 90.2948 141.432 90.0744C140.809 89.8489 140.123 89.7361 139.372 89.7361C138.347 89.7361 137.419 89.9668 136.594 90.423C135.766 90.874 135.117 91.5045 134.646 92.3092C134.179 93.1165 133.949 94.0161 133.949 95.0053C133.949 95.9843 134.185 96.8762 134.656 97.6809C135.128 98.4882 135.774 99.1238 136.594 99.5877C137.419 100.046 138.347 100.275 139.372 100.275C140.738 100.275 141.873 99.9106 142.775 99.1776V95.0566Z" fill="white"/>
</g>
</g>
</g>
<g id="Group_36">
<g id="Group_37">
<g id="Group_38">
<path id="Vector_18" d="M152.472 101.074C150.955 101.074 149.776 100.638 148.935 99.762C148.1 98.8804 147.684 97.5964 147.684 95.9075V89.0186H148.556V95.8767C148.556 97.3478 148.889 98.4473 149.56 99.1777C150.237 99.9106 151.213 100.275 152.492 100.275C153.756 100.275 154.722 99.9106 155.393 99.1777C156.07 98.4473 156.408 97.3478 156.408 95.8767V89.0186H157.28V95.9075C157.28 97.5964 156.854 98.8804 156.008 99.762C155.168 100.638 153.989 101.074 152.472 101.074Z" fill="white"/>
</g>
</g>
</g>
<g id="Group_39">
<g id="Group_40">
<g id="Group_41">
<path id="Vector_19" d="M169.092 97.6195H162.151L160.624 100.992H159.681L165.196 89.0186H166.067L171.572 100.992H170.64L169.092 97.6195ZM168.774 96.8814L165.616 89.9719L162.49 96.8814H168.774Z" fill="white"/>
</g>
</g>
</g>
<g id="Group_42">
<g id="Group_43">
<g id="Group_44">
<path id="Vector_20" d="M179.153 101.074C177.976 101.074 176.918 100.815 175.975 100.295C175.032 99.7697 174.288 99.0444 173.75 98.1218C173.209 97.194 172.94 96.1535 172.94 95.0053C172.94 93.8521 173.209 92.8115 173.75 91.8889C174.288 90.9663 175.032 90.2436 175.975 89.7156C176.918 89.1902 177.976 88.9263 179.153 88.9263C180.014 88.9263 180.808 89.0672 181.541 89.3466C182.272 89.6285 182.894 90.0411 183.407 90.587L182.864 91.1508C181.905 90.2077 180.68 89.7361 179.183 89.7361C178.179 89.7361 177.266 89.9668 176.446 90.423C175.626 90.874 174.98 91.5045 174.509 92.3092C174.042 93.1165 173.812 94.0161 173.812 95.0053C173.812 95.9972 174.042 96.8967 174.509 97.7014C174.98 98.5011 175.626 99.1315 176.446 99.5877C177.266 100.046 178.179 100.275 179.183 100.275C180.665 100.275 181.892 99.7979 182.864 98.8393L183.407 99.4032C182.894 99.9516 182.269 100.367 181.531 100.654C180.798 100.936 180.006 101.074 179.153 101.074ZM178.599 104.703C178.058 104.703 177.607 104.56 177.246 104.273L177.482 103.801C177.789 104.039 178.161 104.16 178.599 104.16C178.94 104.16 179.214 104.078 179.419 103.914C179.624 103.755 179.727 103.534 179.727 103.247C179.727 102.986 179.627 102.776 179.429 102.612C179.237 102.453 178.96 102.376 178.599 102.376H178.261L178.65 100.89H179.214L178.937 101.915C179.394 101.948 179.75 102.089 180.004 102.335C180.262 102.581 180.393 102.899 180.393 103.288C180.393 103.719 180.224 104.06 179.891 104.314C179.555 104.572 179.125 104.703 178.599 104.703Z" fill="white"/>
</g>
</g>
</g>
<g id="Group_45">
<g id="Group_46">
<g id="Group_47">
<path id="Vector_21" d="M191.36 101.074C189.843 101.074 188.664 100.638 187.823 99.762C186.988 98.8804 186.573 97.5964 186.573 95.9075V89.0186H187.444V95.8767C187.444 97.3478 187.777 98.4473 188.449 99.1777C189.125 99.9106 190.102 100.275 191.38 100.275C192.644 100.275 193.61 99.9106 194.282 99.1777C194.958 98.4473 195.296 97.3478 195.296 95.8767V89.0186H196.168V95.9075C196.168 97.5964 195.742 98.8804 194.897 99.762C194.056 100.638 192.877 101.074 191.36 101.074Z" fill="white"/>
</g>
</g>
</g>
</g>
</svg>
