<svg width="45" height="45" viewBox="0 0 45 45" fill="none" xmlns="http://www.w3.org/2000/svg">
<path d="M43.125 7.6875V4.3125L39.75 3.9375C39.5625 3.9375 38.4375 3.75 36.5625 3.75C28.875 3.75 23.25 6 20.0625 9.9375C17.625 8.4375 14.25 7.5 10.3125 7.5C8.4375 7.5 7.125 7.6875 7.125 7.6875L3.5625 8.25L3.75 11.4375C3.9375 17.0625 6.75 27.75 16.5 27.75H16.875V34.125C9.75 35.0625 3.75 37.5 3.75 37.5V41.25H41.25V37.5C41.25 37.5 35.25 35.0625 28.125 34.125V28.125C39.9375 27.9375 43.125 14.625 43.125 7.6875ZM22.5 33.75H20.625V23.25C20.625 23.25 20.25 16.875 15 16.875C15 16.875 17.8125 18.375 18.5625 23.8125C17.8125 24 17.0625 24 16.5 24C7.875 24 7.5 11.4375 7.5 11.4375C7.5 11.4375 8.625 11.25 10.3125 11.25C13.875 11.25 19.6875 12 21.375 17.0625C22.3125 8.625 31.875 7.5 36.5625 7.5C38.25 7.5 39.375 7.6875 39.375 7.6875C39.375 7.6875 39.375 24.5625 27.5625 24.5625H26.25C26.25 20.8125 30 15.1875 30 15.1875C24.375 17.0625 24.375 24.375 24.375 24.375V33.75H22.5Z" fill="#97B690"/>
</svg>
