<svg width="45" height="45" viewBox="0 0 45 45" fill="none" xmlns="http://www.w3.org/2000/svg">
<path d="M7.03125 18.6328V39.375C7.03125 39.748 7.17941 40.1056 7.44313 40.3694C7.70685 40.6331 8.06454 40.7812 8.4375 40.7812H16.875V28.8281C16.875 28.2687 17.0972 27.7322 17.4928 27.3366C17.8884 26.941 18.4249 26.7188 18.9844 26.7188H26.0156C26.5751 26.7188 27.1116 26.941 27.5072 27.3366C27.9028 27.7322 28.125 28.2687 28.125 28.8281V40.7812H36.5625C36.9355 40.7812 37.2931 40.6331 37.5569 40.3694C37.8206 40.1056 37.9688 39.748 37.9688 39.375V18.6328" stroke="#97B690" stroke-width="2.5625" stroke-linecap="round" stroke-linejoin="round"/>
<path d="M42.1875 22.5L23.4571 4.57032C23.0177 4.10626 21.9902 4.10098 21.5429 4.57032L2.8125 22.5M35.1562 15.7324V5.62501H30.9375V11.6895" stroke="#97B690" stroke-width="2.5625" stroke-linecap="round" stroke-linejoin="round"/>
</svg>
