<svg width="45" height="45" viewBox="0 0 45 45" fill="none" xmlns="http://www.w3.org/2000/svg">
<path d="M7.62451 22.5H6.76758L22.5 38.2324L35.4199 25.3125H39.397L22.5 42.2095L3.49365 23.2251C2.98096 22.7124 2.52686 22.1631 2.13135 21.5771C1.73584 20.9912 1.3916 20.3613 1.09863 19.6875H6.43799L12.6562 13.4912L22.5 23.313L29.5312 16.3037L32.937 19.6875H40.7373C41.2061 18.9404 41.5649 18.1494 41.814 17.3144C42.063 16.4795 42.1875 15.6226 42.1875 14.7436C42.1875 13.4692 41.9531 12.2827 41.4844 11.1841C41.0156 10.0854 40.3638 9.13329 39.5288 8.32763C38.6938 7.52197 37.7271 6.88476 36.6284 6.41601C35.5298 5.94726 34.3359 5.71288 33.0469 5.71288C31.8164 5.71288 30.7251 5.90331 29.7729 6.28417C28.8208 6.66503 27.9419 7.17773 27.1362 7.82226C26.3306 8.46679 25.5615 9.17724 24.8291 9.95361C24.0967 10.73 23.3203 11.543 22.5 12.3926C21.709 11.6016 20.9399 10.8032 20.1929 9.99755C19.4458 9.19189 18.6694 8.46679 17.8638 7.82226C17.0581 7.17773 16.1719 6.65038 15.2051 6.24023C14.2383 5.83007 13.1543 5.62499 11.9531 5.62499C10.6934 5.62499 9.51416 5.85937 8.41553 6.32812C7.31689 6.79687 6.3501 7.44872 5.51514 8.28368C4.68018 9.11865 4.02832 10.0854 3.55957 11.1841C3.09082 12.2827 2.84912 13.4692 2.83447 14.7436C2.83447 15.4321 2.91504 16.1426 3.07617 16.875H0.197754C0.124512 16.5234 0.0805664 16.1719 0.065918 15.8203C0.0512695 15.4687 0.0366211 15.1172 0.0219727 14.7656C0.0219727 13.1103 0.32959 11.5576 0.944824 10.1074C1.56006 8.65722 2.40967 7.39013 3.49365 6.30615C4.57764 5.22216 5.84473 4.37255 7.29492 3.75732C8.74512 3.14208 10.2979 2.82714 11.9531 2.81249C13.1689 2.81249 14.2529 2.95165 15.2051 3.22997C16.1572 3.50829 17.0361 3.88915 17.8418 4.37255C18.6475 4.85595 19.4238 5.44921 20.1709 6.15234C20.918 6.85546 21.6943 7.60986 22.5 8.41552C23.3057 7.59521 24.0747 6.84081 24.8071 6.15234C25.5396 5.46386 26.3159 4.87792 27.1362 4.39452C27.9565 3.91113 28.8428 3.52294 29.7949 3.22997C30.7471 2.93701 31.8311 2.79785 33.0469 2.81249C34.6875 2.81249 36.2329 3.12011 37.6831 3.73535C39.1333 4.35058 40.3931 5.20019 41.4624 6.28417C42.5317 7.36816 43.3813 8.62792 44.0112 10.0635C44.6411 11.499 44.9561 13.0444 44.9561 14.6997C44.9561 16.1206 44.707 17.4976 44.209 18.8306C43.7109 20.1636 43.0005 21.3867 42.0776 22.5H31.7505L29.5312 20.2588L22.5 27.312L12.6562 17.4463L7.62451 22.5Z" fill="#97B690"/>
</svg>
