<svg width="45" height="45" viewBox="0 0 45 45" fill="none" xmlns="http://www.w3.org/2000/svg">
<g clip-path="url(#clip0_37_32032)">
<path d="M23.6574 43.1679C22.9128 43.4552 22.0878 43.4552 21.3431 43.1679C15.5275 40.8875 10.5339 36.9078 7.01348 31.7475C3.49305 26.5873 1.60914 20.486 1.60742 14.2393V4.82143C1.60742 3.96895 1.94607 3.15139 2.54886 2.54859C3.15166 1.94579 3.96923 1.60715 4.82171 1.60715H40.1789C41.0313 1.60715 41.8489 1.94579 42.4517 2.54859C43.0545 3.15139 43.3931 3.96895 43.3931 4.82143V14.2071C43.3979 20.4593 41.517 26.5677 37.9961 31.7342C34.4753 36.9008 29.4782 40.8855 23.6574 43.1679Z" stroke="#97B690" stroke-width="2.92857" stroke-linecap="round" stroke-linejoin="round"/>
<path d="M27.322 17.6786H17.6791C15.9039 17.6786 14.4648 19.1177 14.4648 20.8929V27.3214C14.4648 29.0966 15.9039 30.5357 17.6791 30.5357H27.322C29.0972 30.5357 30.5363 29.0966 30.5363 27.3214V20.8929C30.5363 19.1177 29.0972 17.6786 27.322 17.6786Z" stroke="#97B690" stroke-width="2.92857" stroke-linecap="round" stroke-linejoin="round"/>
<path d="M27.3216 17.6786V14.4643C27.3216 13.8311 27.1969 13.2042 26.9546 12.6192C26.7123 12.0343 26.3571 11.5027 25.9094 11.055C25.4617 10.6073 24.9302 10.2522 24.3452 10.0099C23.7603 9.76758 23.1333 9.64287 22.5001 9.64287C21.867 9.64287 21.24 9.76758 20.6551 10.0099C20.0701 10.2522 19.5386 10.6073 19.0909 11.055C18.6432 11.5027 18.288 12.0343 18.0457 12.6192C17.8034 13.2042 17.6787 13.8311 17.6787 14.4643V17.6786" stroke="#97B690" stroke-width="2.92857" stroke-linecap="round" stroke-linejoin="round"/>
</g>
<defs>
<clipPath id="clip0_37_32032">
<rect width="45" height="45" fill="white"/>
</clipPath>
</defs>
</svg>
