<svg width="57" height="56" viewBox="0 0 57 56" fill="none" xmlns="http://www.w3.org/2000/svg">
<path d="M46.5 38H50.5C51.5609 38 52.5783 37.5786 53.3285 36.8284C54.0786 36.0783 54.5 35.0609 54.5 34V28C54.5 26.9391 54.0786 25.9217 53.3285 25.1716C52.5783 24.4214 51.5609 24 50.5 24H46.5C45.9696 24 45.4609 24.2107 45.0858 24.5858C44.7107 24.9609 44.5 25.4696 44.5 26V36C44.5 36.5304 44.7107 37.0391 45.0858 37.4142C45.4609 37.7893 45.9696 38 46.5 38ZM46.5 38V41C46.5 43.1217 45.6572 45.1566 44.1569 46.6569C42.6566 48.1571 40.6218 49 38.5 49M6.5 24H10.5C11.0304 24 11.5391 24.2107 11.9142 24.5858C12.2893 24.9609 12.5 25.4696 12.5 26V36C12.5 36.5304 12.2893 37.0391 11.9142 37.4142C11.5391 37.7893 11.0304 38 10.5 38H6.5C5.43914 38 4.42172 37.5786 3.67157 36.8284C2.92143 36.0783 2.5 35.0609 2.5 34V28C2.5 26.9391 2.92143 25.9217 3.67157 25.1716C4.42172 24.4214 5.43914 24 6.5 24Z" stroke="#7D9B76" stroke-width="2.92857" stroke-linecap="round" stroke-linejoin="round"/>
<path d="M10.5 24V20C10.5 15.2261 12.3964 10.6477 15.7721 7.27208C19.1477 3.89642 23.7261 2 28.5 2C33.2739 2 37.8523 3.89642 41.2279 7.27208C44.6036 10.6477 46.5 15.2261 46.5 20V24M22.5 16V22M34.5 16V22M22.5 30C22.5 35.32 34.5 35.32 34.5 30M33.5 44C34.8261 44 36.0979 44.5268 37.0355 45.4645C37.9732 46.4022 38.5 47.6739 38.5 49C38.5 50.3261 37.9732 51.5979 37.0355 52.5356C36.0979 53.4732 34.8261 54 33.5 54H27.5C26.1739 54 24.9021 53.4732 23.9645 52.5356C23.0268 51.5979 22.5 50.3261 22.5 49C22.5 47.6739 23.0268 46.4022 23.9645 45.4645C24.9021 44.5268 26.1739 44 27.5 44H33.5Z" stroke="#7D9B76" stroke-width="2.92857" stroke-linecap="round" stroke-linejoin="round"/>
</svg>
