<svg width="61" height="61" viewBox="0 0 61 61" fill="none" xmlns="http://www.w3.org/2000/svg">
<path d="M20.3333 22.875H40.6667M20.3333 33.0417H33.0417M27.9787 48.7873L20.3333 53.375V45.75H15.25C13.2277 45.75 11.2883 44.9467 9.85831 43.5167C8.42835 42.0867 7.625 40.1473 7.625 38.125V17.7917C7.625 15.7694 8.42835 13.8299 9.85831 12.4C11.2883 10.97 13.2277 10.1667 15.25 10.1667H45.75C47.7723 10.1667 49.7117 10.97 51.1417 12.4C52.5717 13.8299 53.375 15.7694 53.375 17.7917V29.2292M51.3417 51.3417L55.9167 55.9167M38.125 45.75C38.125 47.7723 38.9283 49.7117 40.3583 51.1417C41.7883 52.5717 43.7277 53.375 45.75 53.375C47.7723 53.375 49.7117 52.5717 51.1417 51.1417C52.5717 49.7117 53.375 47.7723 53.375 45.75C53.375 43.7277 52.5717 41.7883 51.1417 40.3583C49.7117 38.9283 47.7723 38.125 45.75 38.125C43.7277 38.125 41.7883 38.9283 40.3583 40.3583C38.9283 41.7883 38.125 43.7277 38.125 45.75Z" stroke="#97B690" stroke-width="3.41667" stroke-linecap="round" stroke-linejoin="round"/>
</svg>
