<svg width="55" height="55" viewBox="0 0 55 55" fill="none" xmlns="http://www.w3.org/2000/svg">
<path d="M45.1786 19.6429C45.1786 29.425 27.5 53.0357 27.5 53.0357C27.5 53.0357 9.82141 29.425 9.82141 19.6429C9.82141 14.9542 11.684 10.4576 14.9993 7.14222C18.3147 3.82684 22.8113 1.96428 27.5 1.96428C32.1886 1.96428 36.6852 3.82684 40.0006 7.14222C43.316 10.4576 45.1786 14.9542 45.1786 19.6429Z" stroke="#97B690" stroke-width="2.92857" stroke-linecap="round" stroke-linejoin="round"/>
<path d="M27.5 25.5357C30.7546 25.5357 33.3929 22.8974 33.3929 19.6429C33.3929 16.3883 30.7546 13.75 27.5 13.75C24.2455 13.75 21.6072 16.3883 21.6072 19.6429C21.6072 22.8974 24.2455 25.5357 27.5 25.5357Z" stroke="#97B690" stroke-width="2.92857" stroke-linecap="round" stroke-linejoin="round"/>
</svg>
