<svg width="45" height="45" viewBox="0 0 45 45" fill="none" xmlns="http://www.w3.org/2000/svg">
<g clip-path="url(#clip0_37_32093)">
<path d="M39.9547 25.0045V16.2007C39.9547 14.9513 40.9771 13.9352 42.2336 13.9352C42.8343 13.9354 43.4103 14.1742 43.835 14.599C44.2597 15.0239 44.4983 15.6 44.4983 16.2007V28.2558C44.4979 29.9186 43.9037 31.5267 42.8228 32.7902L35.3057 40.7735C34.5597 41.4759 34.3768 42.0975 34.3768 43.0397V44.4931H26.1946L26.1854 41.0351C26.1854 39.7181 26.0779 37.9582 27.726 36.2313L37.2646 26.6534C37.5971 26.3213 38.0457 26.1316 38.5156 26.1244C38.9854 26.1171 39.4397 26.293 39.7823 26.6146C40.1249 26.9363 40.3289 27.3786 40.3512 27.848C40.3736 28.3174 40.2125 28.777 39.902 29.1298L35.3014 34.058C35.0033 34.4074 34.4985 35.0663 34.2482 35.8734C34.1132 36.2925 34.0745 36.701 34.0668 37.17H35.5475C35.5532 36.836 35.5785 36.5674 35.6579 36.3185C35.8028 35.8531 36.0911 35.434 36.3083 35.1654L40.9785 30.0396C41.5656 29.4476 41.8876 28.6812 41.8876 27.8754C41.8876 26.6653 41.1599 25.5523 39.9561 25.0038L39.9547 25.0045ZM5.48402 25.0045V16.2007C5.48402 14.9513 4.46168 13.9352 3.2052 13.9352C2.60448 13.9354 2.02843 14.1742 1.60372 14.599C1.17902 15.0239 0.94043 15.6 0.94043 16.2007V28.2558C0.94043 29.9229 1.5402 31.5331 2.61668 32.7902L10.1345 40.7735C10.8798 41.4759 11.0633 42.0975 11.0633 43.0397V44.4931H19.2456L19.2547 41.0351C19.2547 39.7181 19.3623 37.9582 17.7142 36.2313L8.17559 26.6534C7.84307 26.3213 7.39444 26.1316 6.92458 26.1244C6.45471 26.1171 6.00046 26.293 5.65788 26.6146C5.3153 26.9363 5.11127 27.3786 5.08893 27.848C5.06658 28.3174 5.22769 28.777 5.53816 29.1298L10.1394 34.058C10.4375 34.4074 10.9424 35.0663 11.1927 35.8734C11.3284 36.2925 11.3664 36.701 11.3741 37.17H9.89332C9.8877 36.836 9.86309 36.5674 9.78223 36.3185C9.63809 35.8531 9.3491 35.434 9.13184 35.1654L4.46168 30.0403C3.87457 29.4483 3.55254 28.6812 3.55254 27.8761C3.55254 26.6653 4.28027 25.553 5.48402 25.0045ZM23.5804 4.30524C24.0956 4.30524 24.5897 4.10056 24.9541 3.73622C25.3184 3.37189 25.5231 2.87775 25.5231 2.3625C25.5231 1.84726 25.3184 1.35311 24.9541 0.98878C24.5897 0.624446 24.0956 0.419766 23.5804 0.419766C23.0651 0.419766 22.571 0.624446 22.2066 0.98878C21.8423 1.35311 21.6376 1.84726 21.6376 2.3625C21.6376 2.87775 21.8423 3.37189 22.2066 3.73622C22.571 4.10056 23.0651 4.30524 23.5804 4.30524ZM13.0426 4.31578C12.7848 4.31689 12.5293 4.26718 12.2908 4.16949C12.0522 4.07179 11.8352 3.92804 11.6523 3.74643C11.4693 3.56483 11.3239 3.34894 11.2244 3.11112C11.1249 2.87329 11.0733 2.61819 11.0725 2.36039C11.0734 2.10266 11.1251 1.84763 11.2246 1.60988C11.3241 1.37214 11.4695 1.15633 11.6525 0.974803C11.8355 0.793275 12.0524 0.649581 12.2909 0.551932C12.5295 0.454283 12.7849 0.404593 13.0426 0.405704C14.1311 0.405704 15.0156 1.28039 15.0156 2.36039C15.0156 3.4425 14.1311 4.31578 13.0426 4.31578ZM33.2307 11.8139C33.4097 11.8138 33.5869 11.7785 33.7522 11.7099C33.9174 11.6413 34.0676 11.5409 34.1941 11.4143C34.3205 11.2877 34.4208 11.1374 34.4892 10.9721C34.5576 10.8067 34.5928 10.6295 34.5927 10.4505C34.5926 10.2716 34.5573 10.0944 34.4887 9.92914C34.4201 9.76385 34.3197 9.61368 34.1931 9.48721C34.0665 9.36074 33.9162 9.26045 33.7509 9.19205C33.5855 9.12366 33.4083 9.0885 33.2293 9.0886C32.8679 9.08878 32.5214 9.23253 32.266 9.48821C32.0106 9.74389 31.8672 10.0906 31.8674 10.452C31.8676 10.8134 32.0113 11.1599 32.267 11.4153C32.5227 11.6707 32.8693 11.8141 33.2307 11.8139Z" fill="#97B690"/>
<path d="M35.2033 12.4861H31.5281C31.5112 12.4861 30.2983 12.3757 30.2983 12.3757L28.7592 7.01086C28.1397 4.85086 26.3285 4.91695 26.3285 4.91695H21.3462C21.3462 4.91695 19.5363 4.85086 18.9169 7.01086L18.1568 9.6525L17.3988 7.01086C16.7758 4.85086 14.9695 4.91695 14.9695 4.91695H11.1143C11.1143 4.91695 9.30303 4.85086 8.68358 7.01086L7.13178 12.4172C6.98412 12.9234 7.26116 13.3073 7.70412 13.4353C8.14569 13.5612 8.5978 13.3383 8.711 12.9354L10.2227 7.66547L10.9589 7.66406L8.75248 16.7885H10.7022V23.2699C10.7022 23.8036 11.1326 24.2381 11.6676 24.2381C12.2013 24.2381 12.638 23.8036 12.638 23.2699V16.7885H13.4557V23.2699C13.4557 23.8036 13.8867 24.2381 14.4204 24.2381C14.6776 24.2385 14.9244 24.1367 15.1067 23.9552C15.2889 23.7736 15.3915 23.5271 15.3921 23.2699V16.7885H17.3081L15.1249 7.66406L15.8583 7.66547L17.3531 12.8798C17.3777 12.9691 17.4178 13.0507 17.4698 13.121C17.6161 13.3425 17.8713 13.4648 18.1554 13.4557C18.4394 13.4648 18.6933 13.3432 18.8395 13.1252C18.9005 13.0455 18.9439 12.9537 18.9668 12.8559L20.4539 7.66477L21.1317 7.66336V23.0815C21.1317 23.7115 21.6471 24.2205 22.2757 24.2205C22.905 24.2205 23.4147 23.7115 23.4147 23.0815V14.3093H24.2571V23.0815C24.2571 23.7115 24.7676 24.2205 25.3948 24.2205C26.0255 24.2205 26.5422 23.7115 26.5422 23.0815V7.66336L27.2791 7.66477L28.7262 12.9347C28.8049 13.1941 29.0215 13.3657 29.2809 13.4318C29.2922 13.4346 29.2978 13.4395 29.3069 13.4423C29.5376 13.4944 30.6007 13.796 31.3812 14.0189V23.5814C31.3898 23.7882 31.4781 23.9836 31.6274 24.1269C31.7768 24.2701 31.9758 24.3501 32.1827 24.3501C32.3897 24.3501 32.5886 24.2701 32.738 24.1269C32.8874 23.9836 32.9756 23.7882 32.9843 23.5814V18.8044H33.6115V23.5814C33.6115 24.023 33.9694 24.3809 34.4109 24.3809C34.8525 24.3809 35.2153 24.023 35.2153 23.5814V14.6489H35.8305V17.6752C35.8305 18.0077 36.0998 18.2749 36.4268 18.2749C36.5049 18.2746 36.5823 18.2587 36.6543 18.2283C36.7263 18.1979 36.7916 18.1536 36.8463 18.0978C36.9011 18.042 36.9443 17.976 36.9734 17.9034C37.0026 17.8309 37.017 17.7533 37.016 17.6752V14.2327C37.0174 13.2687 36.1687 12.4861 35.2047 12.4861H35.2033Z" fill="#97B690"/>
</g>
<defs>
<clipPath id="clip0_37_32093">
<rect width="45" height="45" fill="white"/>
</clipPath>
</defs>
</svg>
