<svg width="45" height="45" viewBox="0 0 45 45" fill="none" xmlns="http://www.w3.org/2000/svg">
<path d="M20.25 5.625C20.25 5.32663 20.3685 5.04048 20.5795 4.82951C20.7905 4.61853 21.0766 4.5 21.375 4.5H28.125C28.4234 4.5 28.7095 4.61853 28.9205 4.82951C29.1315 5.04048 29.25 5.32663 29.25 5.625V7.875C29.25 8.17337 29.1315 8.45952 28.9205 8.6705C28.7095 8.88147 28.4234 9 28.125 9H22.5V11.25C25.4837 11.25 28.3452 12.4353 30.455 14.545C32.5647 16.6548 33.75 19.5163 33.75 22.5V24.75H36C37.1935 24.75 38.3381 25.2241 39.182 26.068C40.0259 26.9119 40.5 28.0565 40.5 29.25V38.25C40.5 38.8467 40.2629 39.419 39.841 39.841C39.419 40.2629 38.8467 40.5 38.25 40.5H6.75C6.15326 40.5 5.58097 40.2629 5.15901 39.841C4.73705 39.419 4.5 38.8467 4.5 38.25V29.25C4.5 28.0565 4.97411 26.9119 5.81802 26.068C6.66193 25.2241 7.80653 24.75 9 24.75H11.25V22.5C11.2503 19.9068 12.1462 17.3932 13.7861 15.3843C15.426 13.3754 17.7093 11.9945 20.25 11.475V5.625ZM36 27H32.625C32.3266 27 32.0405 26.8815 31.8295 26.6705C31.6185 26.4595 31.5 26.1734 31.5 25.875V22.5C31.5 20.1131 30.5518 17.8239 28.864 16.136C27.1761 14.4482 24.8869 13.5 22.5 13.5C20.1131 13.5 17.8239 14.4482 16.136 16.136C14.4482 17.8239 13.5 20.1131 13.5 22.5V25.875C13.5 26.1734 13.3815 26.4595 13.1705 26.6705C12.9595 26.8815 12.6734 27 12.375 27H9C8.40326 27 7.83097 27.2371 7.40901 27.659C6.98705 28.081 6.75 28.6533 6.75 29.25V38.25H18V33.75C18 33.1533 18.2371 32.581 18.659 32.159C19.081 31.7371 19.6533 31.5 20.25 31.5H24.75C25.3467 31.5 25.919 31.7371 26.341 32.159C26.7629 32.581 27 33.1533 27 33.75V38.25H38.25V29.25C38.25 28.6533 38.0129 28.081 37.591 27.659C37.169 27.2371 36.5967 27 36 27ZM13.5 30.375C13.5 30.0766 13.3815 29.7905 13.1705 29.5795C12.9595 29.3685 12.6734 29.25 12.375 29.25C12.0766 29.25 11.7905 29.3685 11.5795 29.5795C11.3685 29.7905 11.25 30.0766 11.25 30.375V34.875C11.25 35.1734 11.3685 35.4595 11.5795 35.6705C11.7905 35.8815 12.0766 36 12.375 36C12.6734 36 12.9595 35.8815 13.1705 35.6705C13.3815 35.4595 13.5 35.1734 13.5 34.875V30.375ZM33.75 30.375C33.75 30.0766 33.6315 29.7905 33.4205 29.5795C33.2095 29.3685 32.9234 29.25 32.625 29.25C32.3266 29.25 32.0405 29.3685 31.8295 29.5795C31.6185 29.7905 31.5 30.0766 31.5 30.375V34.875C31.5 35.1734 31.6185 35.4595 31.8295 35.6705C32.0405 35.8815 32.3266 36 32.625 36C32.9234 36 33.2095 35.8815 33.4205 35.6705C33.6315 35.4595 33.75 35.1734 33.75 34.875V30.375ZM19.125 20.25C18.8266 20.25 18.5405 20.3685 18.3295 20.5795C18.1185 20.7905 18 21.0766 18 21.375V25.875C18 26.1734 18.1185 26.4595 18.3295 26.6705C18.5405 26.8815 18.8266 27 19.125 27C19.4234 27 19.7095 26.8815 19.9205 26.6705C20.1315 26.4595 20.25 26.1734 20.25 25.875V21.375C20.25 21.0766 20.1315 20.7905 19.9205 20.5795C19.7095 20.3685 19.4234 20.25 19.125 20.25ZM27 21.375C27 21.0766 26.8815 20.7905 26.6705 20.5795C26.4595 20.3685 26.1734 20.25 25.875 20.25C25.5766 20.25 25.2905 20.3685 25.0795 20.5795C24.8685 20.7905 24.75 21.0766 24.75 21.375V25.875C24.75 26.1734 24.8685 26.4595 25.0795 26.6705C25.2905 26.8815 25.5766 27 25.875 27C26.1734 27 26.4595 26.8815 26.6705 26.6705C26.8815 26.4595 27 26.1734 27 25.875V21.375ZM20.25 38.25H24.75V33.75H20.25V38.25Z" fill="#97B690"/>
</svg>
