<svg width="44" height="31" viewBox="0 0 44 31" fill="none" xmlns="http://www.w3.org/2000/svg">
<path d="M22.1603 0.506348H22.4049C24.6636 0.514309 36.1083 0.593927 39.1941 1.3954C40.1269 1.64001 40.977 2.11679 41.6593 2.77811C42.3416 3.43942 42.8323 4.2621 43.0822 5.16394C43.3598 6.17242 43.5549 7.50733 43.6868 8.88471L43.7142 9.16071L43.7747 9.85073L43.7967 10.1267C43.9753 12.5524 43.9973 14.8241 44 15.3204V15.5195C43.9973 16.0343 43.9725 18.46 43.7747 20.9865L43.7527 21.2651L43.728 21.5411C43.5906 23.0592 43.3872 24.5666 43.0822 25.6759C42.833 26.5781 42.3426 27.4012 41.6602 28.0626C40.9778 28.724 40.1273 29.2006 39.1941 29.4445C36.0066 30.2725 23.8914 30.3309 22.2125 30.3335H21.8223C20.9733 30.3335 17.4615 30.3176 13.7795 30.1955L13.3123 30.1796L13.0733 30.169L12.6034 30.1504L12.1335 30.1318C9.08343 30.0018 6.17898 29.7921 4.84079 29.4418C3.90788 29.1982 3.05763 28.722 2.37524 28.0611C1.69284 27.4002 1.20225 26.5776 0.952622 25.6759C0.647614 24.5692 0.444275 23.0592 0.306884 21.5411L0.284902 21.2625L0.262919 20.9865C0.127307 19.1882 0.0521607 17.3861 0.0375977 15.5831L0.0375977 15.2567C0.0430933 14.6861 0.0650759 12.7143 0.213458 10.5381L0.232693 10.2647L0.240937 10.1267L0.262919 9.85073L0.323371 9.16071L0.350849 8.88471C0.482745 7.50733 0.67784 6.16977 0.95537 5.16394C1.20458 4.26174 1.69498 3.43867 2.3774 2.77724C3.05983 2.11581 3.91029 1.63928 4.84354 1.3954C6.18173 1.0504 9.08618 0.838085 12.1363 0.70539L12.6034 0.686813L13.076 0.67089L13.3123 0.662928L13.7822 0.644351C16.3973 0.563074 19.0135 0.517953 21.63 0.509002H22.1603V0.506348ZM17.6237 9.02536V21.8118L29.0464 15.4213L17.6237 9.02536Z" fill="#E9EAED"/>
</svg>
